<svg id="Lag_1" data-name="Lag 1" xmlns="http://www.w3.org/2000/svg" viewBox="0 0 381.84 133.47"><defs><style>.cls-1{fill:#fff;}</style></defs><title>HVID pcfejl logo</title><path class="cls-1" d="M47.17,44.39a13.37,13.37,0,0,0,8.75-12.92,13.2,13.2,0,0,0-3.26-9.17,14.25,14.25,0,0,0-8.27-4.51q-3.68-.69-14.79-.7H19.67V46H30.92Q43.07,46,47.17,44.39Z"/><path class="cls-1" d="M273,42.68a13.55,13.55,0,0,0-10.55,4.65Q258.32,52,258.39,60h29.17q-.21-8.47-4.38-12.88A13.43,13.43,0,0,0,273,42.68Z"/><path class="cls-1" d="M362.82,1.74h19V0h-160a54.17,54.17,0,0,1,16.32,2.5l-2.64,13.61A38.5,38.5,0,0,0,226.58,15c-2.83,0-4.85.66-6.08,2s-1.84,3.85-1.84,7.6v5.21h14.58V45.14H218.66v58.4H199.15V45.14H188.31V29.79h10.84V24.24q0-9.31,2-13.89a15.59,15.59,0,0,1,7.29-7.47Q213.73,0,221.85,0H138.31Q157,0,168.66,11q6.94,6.53,10.42,18.75l-20.35,4.86a21,21,0,0,0-21.46-17.08q-11.31,0-18.37,8.12t-7,26.32q0,19.31,6.94,27.5a22.54,22.54,0,0,0,18.06,8.2A20.58,20.58,0,0,0,151,82.5q5.91-5.2,8.47-16.39l19.93,6.32q-4.57,16.66-15.24,24.76t-27.05,8.09q-20.28,0-33.33-13.86T90.67,53.54q0-25.41,13.13-39.48T138.31,0H0V1.74H32.41q18.75,0,24.45,1.52a26.71,26.71,0,0,1,14.65,10q5.89,7.68,5.9,19.83,0,9.38-3.4,15.76a27.87,27.87,0,0,1-8.65,10A29.83,29.83,0,0,1,54.7,63.68q-7.35,1.46-21.32,1.46H20v38.4H0v29.93H320.12a41,41,0,0,1-6.29-.52,70.77,70.77,0,0,1-7.25-1.56l3.4-16.67c.92.19,1.79.34,2.6.45a15.55,15.55,0,0,0,2.26.18,8.55,8.55,0,0,0,4.89-1.29,6.21,6.21,0,0,0,2.54-3.09q.63-1.8.63-10.83V29.79h19.51v71.46q0,14.1-1.84,19.89a16.14,16.14,0,0,1-7.09,9.07q-5.24,3.25-13.36,3.26h61.72V103.54h-19ZM307.41,72.29H258.52q.21,8.68,4.72,13.51a14.76,14.76,0,0,0,11.25,4.82,11.92,11.92,0,0,0,7.71-2.5q3.12-2.49,4.72-8.05l19.45,3.26Q302.62,94,294.53,99.62t-20.25,5.59q-19.23,0-28.47-12.57-7.29-10.06-7.29-25.42,0-18.33,9.58-28.71t24.24-10.38q16.46,0,26,10.86T307.41,72.29Zm35-52.5H322.9v-18h19.51Z"/></svg>