<?xml version="1.0" encoding="utf-8"?>
<!-- Generator: Adobe Illustrator 23.0.1, SVG Export Plug-In . SVG Version: 6.00 Build 0)  -->
<svg version="1.1" id="Lag_1" xmlns="http://www.w3.org/2000/svg" xmlns:xlink="http://www.w3.org/1999/xlink" x="0px" y="0px"
	 viewBox="0 0 630.3 199.3" style="enable-background:new 0 0 630.3 199.3;" xml:space="preserve">
<style type="text/css">
	.st0{fill:#FFFFFF;stroke:#FFFFFF;stroke-width:10;stroke-miterlimit:10;}
	.st1{fill:#FFFFFF;stroke:#FFFFFF;stroke-width:4;stroke-miterlimit:10;}
	.st2{fill:none;}
	.st3{fill:#FFFFFF;}
</style>
<path class="st0" d="M249.6,133.4c-10.8-11.3-16.1-28.4-16.1-51.2c0-22.8,5.4-39.9,16.1-51.2c10.8-11.3,26.8-17,48-17
	c17.2,0,30.9,4.3,41.2,12.8c10.3,8.5,15.5,20.9,15.5,37.2h-18.6c0-11.3-3.4-19.8-10.1-25.7c-6.7-5.8-16-8.7-28-8.7
	c-15.5,0-26.9,4.1-34.2,12.3c-7.3,8.2-11,21.5-11.1,40v0.4c0,18.6,3.7,32,11,40.3c7.3,8.3,18.8,12.4,34.4,12.4
	c12.2,0,21.7-2.9,28.5-8.6c6.9-5.8,10.3-14.2,10.3-25.4h17.9c0,16.4-5.1,28.8-15.4,37.1c-10.2,8.3-24,12.5-41.3,12.5
	C276.4,150.4,260.4,144.7,249.6,133.4z"/>
<path class="st1" d="M392.5,60.3h-16.1V45h16.1V27.4c0-7.3,1.8-13.3,5.4-18.1c3.6-4.8,9.8-7.2,18.4-7.2c2.8,0,5.6,0.2,8.5,0.7
	c2.9,0.5,5.3,1.1,7.2,1.8v12.8h-10.9c-6.8,0-10.3,3.4-10.3,10.1V45h21.2v15.3H411v95h-18.4V60.3z"/>
<path class="st1" d="M527.2,147.8c-8.9,6.9-19.7,9.9-33.7,9.9c-17.7,0-31-4.7-39.6-14c-8.7-9.4-13-23.9-13-43.6
	c0-19.7,4.3-34.2,13-43.6c8.7-9.4,21.9-14,39.6-14c15.9,0,27.8,4.2,35.7,12.7c7.9,8.5,11.8,22,11.8,40.8v9.2H460
	c0.7,12.7,3.7,22.1,9.1,28.2c5.4,6.1,13.5,9.1,24.4,9.1c8.8,0,17.9-3.4,23.4-7.4 M521.8,89.8c0-21.4-9.4-32.1-28.3-32.1
	c-10.5,0-18.3,2.5-23.6,7.5c-5.2,5-8.4,13.2-9.5,24.5H521.8z"/>
<path class="st1" d="M544.3,190.9v-11.9h9.2c6.6,0,9.9-3.4,9.9-10.1V45h18.4v123c0,7.3-1.8,13.3-5.3,18.1c-3.6,4.8-9.5,7.2-17.7,7.2
	C553.8,193.4,549,192.5,544.3,190.9z M563.3,3.7h18.4v20.5h-18.4V3.7z"/>
<path class="st1" d="M609.9,3.7h18.4v151.6h-18.4V3.7z"/>
<path class="st2" d="M171.2,38.7h-42.5v46.7h42.5c6.8,0,12.2-2.1,16.2-6.4c4-4.2,6-10,6-17.2c0-7.4-1.9-13.1-5.6-17.1
	C184,40.7,178.4,38.7,171.2,38.7z"/>
<path class="st0" d="M206,27.2c-7-7.3-17.2-11-30.4-11h-64.2v130.9l18.3-18.3V97.5h45.9c12.6,0,22.5-3.7,29.9-11.2
	c7.4-7.5,11-17.5,11-29.9C216.6,44.3,213,34.5,206,27.2z M191.8,74.9c-4.2,4.5-9.9,6.7-17.1,6.7h-45V32.2h45
	c7.7,0,13.5,2.1,17.5,6.3c4,4.2,6,10.2,6,18.1C198.1,64.3,196,70.4,191.8,74.9z"/>
<polygon id="XMLID_8_" class="st3" points="0,122.6 96.9,11.5 97,158.9 67.2,128.6 46.6,183.8 21.7,174.5 42.3,119.3 "/>
<g>
	<path class="st3" d="M107.2,168.9h3.7l15.8,20.9l1,1.4l0.2,0v-2v-20.2h3.9v29.9h-3.5l-15.9-21.1l-1.1-1.5l-0.2,0v1.8v20.8h-3.9
		V168.9z"/>
	<path class="st3" d="M139.2,197.9c-1.5-0.9-2.3-2.6-2.3-5.1c0-2.9,1.3-5,3.9-6s6.4-1.6,11.3-1.6v-2.5c0-1.3-0.4-2.4-1.1-3.1
		c-0.8-0.7-2.1-1.1-4.1-1.1c-1.9,0-3.2,0.3-4,1c-0.8,0.7-1.2,1.6-1.2,2.6v0.5H138c0-0.2,0-0.5,0-1c0-2,0.8-3.6,2.5-4.7
		c1.7-1.1,3.9-1.7,6.8-1.7c2.9,0,5,0.6,6.5,1.8c1.5,1.2,2.2,2.9,2.2,5.1v12.4c0,0.5,0.1,0.9,0.4,1.2c0.3,0.2,0.7,0.4,1.1,0.4h1.7
		v2.5c-0.8,0.3-1.7,0.5-3,0.5c-1,0-1.8-0.3-2.5-0.9c-0.7-0.6-1.1-1.4-1.4-2.4h-0.3c-0.8,1.1-1.9,1.9-3.2,2.5
		c-1.4,0.6-2.8,0.9-4.5,0.9C142.5,199.3,140.7,198.9,139.2,197.9z M148.7,195.5c1-0.5,1.8-1.2,2.5-2.1c0.6-0.9,1-2,1-3.3v-1.7
		c-3.8,0-6.6,0.3-8.4,0.9c-1.9,0.6-2.8,1.7-2.8,3.4c0,1.3,0.4,2.1,1.2,2.7c0.8,0.5,1.9,0.8,3.4,0.8
		C146.6,196.2,147.7,195.9,148.7,195.5z M143.9,172.9c-0.8-0.8-1.1-1.8-1.1-3c0-1.2,0.4-2.2,1.1-3c0.8-0.8,1.8-1.2,3.1-1.2
		c1.3,0,2.3,0.4,3.1,1.2c0.8,0.8,1.1,1.8,1.1,3c0,1.2-0.4,2.2-1.1,3c-0.8,0.8-1.8,1.2-3.1,1.2C145.6,174.1,144.6,173.7,143.9,172.9z
		 M148.5,171.5c0.4-0.4,0.6-1,0.6-1.6c0-0.6-0.2-1.1-0.6-1.6c-0.4-0.4-1-0.7-1.6-0.7c-0.6,0-1.2,0.2-1.6,0.7c-0.4,0.4-0.6,1-0.6,1.6
		c0,0.6,0.2,1.1,0.6,1.6c0.4,0.4,1,0.7,1.6,0.7C147.6,172.1,148.1,171.9,148.5,171.5z"/>
	<path class="st3" d="M162.5,175.9h2.9l0.4,3.4h0.3c0.4-1.1,1.1-2.1,2-2.8c0.9-0.8,2-1.1,3.4-1.1c0.8,0,1.5,0.1,2.1,0.3v3.7h-1.6
		c-1.6,0-3,0.5-4,1.4c-1.1,0.9-1.6,2.4-1.6,4.4v13.6h-3.8V175.9z"/>
	<path class="st3" d="M190.2,168.9h4.1v29.9h-4.1V168.9z"/>
	<path class="st3" d="M209.6,172.5h-10.3v-3.6h24.8v3.6h-10.3v26.3h-4.1V172.5z"/>
	<path class="st3" d="M241.8,198.4c-1.4-0.6-2.5-1.4-3.1-2.5c-0.7-1-1-2.1-1-3.3c0-0.3,0-0.6,0-0.7c0-0.1,0-0.2,0-0.2h3.8v0.4
		c0,1.4,0.5,2.4,1.6,3.1s2.5,1,4.2,1c1.5,0,2.7-0.3,3.7-0.9c1-0.6,1.5-1.4,1.5-2.5c0-0.8-0.3-1.5-0.8-2.1c-0.6-0.5-1.2-1-2.1-1.3
		c-0.8-0.3-1.9-0.6-3.3-1c-1.7-0.4-3.1-0.9-4.1-1.3c-1.1-0.4-2-1.1-2.7-1.9c-0.7-0.9-1.1-2-1.1-3.3c0-2,0.8-3.6,2.5-4.8
		c1.6-1.2,3.9-1.8,6.7-1.8c1.7,0,3.3,0.3,4.5,0.9c1.3,0.6,2.2,1.3,2.9,2.3c0.7,0.9,1,2,1,3.2l0,0.8h-3.8v-0.4c0-1-0.4-1.9-1.2-2.5
		c-0.8-0.7-2.1-1-3.9-1c-1.7,0-3,0.3-3.7,0.9c-0.7,0.6-1,1.3-1,2.2c0,0.7,0.2,1.2,0.7,1.7c0.5,0.4,1.1,0.8,1.8,1
		c0.7,0.3,1.7,0.6,3.1,0.9c1.8,0.5,3.3,0.9,4.4,1.4c1.1,0.5,2.1,1.1,2.9,2.1c0.8,0.9,1.2,2.1,1.2,3.6c0,2.4-0.9,4.1-2.6,5.3
		c-1.7,1.2-4,1.8-6.8,1.8C245,199.3,243.3,199,241.8,198.4z"/>
	<path class="st3" d="M261.1,167.3h3.8v19.9l9.7-11.3h4.8l-7.9,9l8.3,13.9h-4.5l-6.3-11.2l-4.2,4v7.2h-3.8V167.3z"/>
	<path class="st3" d="M283.9,197.9c-1.5-0.9-2.3-2.6-2.3-5.1c0-2.9,1.3-5,3.9-6s6.4-1.6,11.3-1.6v-2.5c0-1.3-0.4-2.4-1.1-3.1
		c-0.8-0.7-2.1-1.1-4.1-1.1c-1.9,0-3.2,0.3-4,1c-0.8,0.7-1.2,1.6-1.2,2.6v0.5h-3.7c0-0.2,0-0.5,0-1c0-2,0.8-3.6,2.5-4.7
		c1.7-1.1,3.9-1.7,6.8-1.7c2.9,0,5,0.6,6.5,1.8c1.5,1.2,2.2,2.9,2.2,5.1v12.4c0,0.5,0.1,0.9,0.4,1.2c0.3,0.2,0.7,0.4,1.1,0.4h1.7
		v2.5c-0.8,0.3-1.7,0.5-3,0.5c-1,0-1.8-0.3-2.5-0.9c-0.7-0.6-1.1-1.4-1.4-2.4h-0.3c-0.8,1.1-1.9,1.9-3.2,2.5
		c-1.4,0.6-2.8,0.9-4.5,0.9C287.2,199.3,285.5,198.9,283.9,197.9z M293.4,195.5c1-0.5,1.8-1.2,2.5-2.1c0.6-0.9,1-2,1-3.3v-1.7
		c-3.8,0-6.6,0.3-8.4,0.9c-1.9,0.6-2.8,1.7-2.8,3.4c0,1.3,0.4,2.1,1.2,2.7c0.8,0.5,1.9,0.8,3.4,0.8
		C291.3,196.2,292.4,195.9,293.4,195.5z"/>
	<path class="st3" d="M307.2,167.3h3.8v31.6h-3.8V167.3z"/>
	<path class="st3" d="M326.7,175.9h4.1l4.1,11.5c0.6,1.6,1.3,4,2.3,7.2h0.2c0.8-3,1.6-5.4,2.2-7.2l4-11.5h3.8l-8.4,23h-3.8
		L326.7,175.9z"/>
	<path class="st3" d="M352,197.9c-1.6-0.9-2.4-2.6-2.4-5.1c0-2.9,1.3-5,4-6c2.6-1.1,6.4-1.6,11.4-1.6v-2.5c0-1.3-0.4-2.4-1.2-3.1
		c-0.8-0.7-2.2-1.1-4.1-1.1c-1.9,0-3.2,0.3-4,1c-0.8,0.7-1.2,1.6-1.2,2.6v0.5h-3.7c0-0.2,0-0.5,0-1c0-2,0.8-3.6,2.5-4.7
		c1.7-1.1,3.9-1.7,6.8-1.7c3.6,0,6.1,1.1,7.6,3.2c1.7-2.2,4.4-3.2,7.9-3.2c3.2,0,5.6,0.9,7.2,2.6s2.4,4.6,2.4,8.5v1.9h-16.3
		c0.1,2.6,0.7,4.6,1.8,5.9c1.1,1.3,2.7,1.9,4.8,1.9c1.7,0,3.2-0.4,4.3-1.3c1.1-0.8,1.6-2.1,1.6-3.9h3.8c0,2.7-0.9,4.7-2.7,6.2
		c-1.8,1.4-4.1,2.2-6.9,2.2c-4.1,0-7-1.3-8.6-3.9c-1,1.2-2.4,2.2-4,2.9s-3.4,1-5.2,1C355.5,199.3,353.6,198.9,352,197.9z
		 M362.9,194.7c1.3-1,2-2.5,2-4.6v-1.7c-3.8,0-6.6,0.3-8.5,0.9s-2.9,1.7-2.9,3.4c0,1.3,0.4,2.1,1.2,2.7c0.8,0.5,1.9,0.8,3.4,0.8
		C360,196.2,361.6,195.7,362.9,194.7z M381,185.2c0-4.5-1.9-6.7-5.6-6.7c-2.1,0-3.6,0.5-4.7,1.6c-1,1-1.7,2.8-1.9,5.1H381z"/>
	<path class="st3" d="M389.7,175.9h2.9l0.4,3.4h0.3c0.4-1.1,1.1-2.1,2-2.8c0.9-0.8,2-1.1,3.4-1.1c0.8,0,1.5,0.1,2.1,0.3v3.7h-1.6
		c-1.6,0-3,0.5-4,1.4c-1.1,0.9-1.6,2.4-1.6,4.4v13.6h-3.8V175.9z"/>
	<path class="st3" d="M405.7,196.4c-1.8-2-2.7-5-2.7-9.1s0.9-7.1,2.7-9.1c1.8-1.9,4.6-2.9,8.3-2.9c3.3,0,5.8,0.9,7.4,2.6
		s2.5,4.6,2.5,8.5v1.9H407c0.1,2.6,0.8,4.6,1.9,5.9s2.8,1.9,5.1,1.9c1.8,0,3.3-0.4,4.5-1.3c1.1-0.8,1.7-2.1,1.7-3.9h3.8
		c0,2.7-0.9,4.7-2.8,6.2s-4.2,2.2-7.1,2.2C410.3,199.3,407.5,198.4,405.7,196.4z M419.8,185.2c0-4.5-2-6.7-5.9-6.7
		c-2.2,0-3.8,0.5-4.9,1.6c-1.1,1-1.8,2.8-2,5.1H419.8z"/>
	<path class="st3" d="M440.6,175.9h2.9l0.4,3.1h0.3c1.7-2.4,4.3-3.6,7.7-3.6c2.3,0,4.1,0.6,5.3,1.9c1.2,1.2,1.9,3.2,1.9,6v15.7h-3.8
		v-15.4c0-1.8-0.4-3.1-1.2-3.8c-0.8-0.7-2-1.1-3.5-1.1c-1.1,0-2.1,0.3-3.1,0.8c-0.9,0.5-1.7,1.3-2.2,2.3c-0.6,1-0.8,2.2-0.8,3.6
		v13.6h-3.8V175.9z"/>
	<path class="st3" d="M466.4,196.4c-1.8-2-2.7-5-2.7-9.1s0.9-7.1,2.7-9.1c1.8-1.9,4.6-2.9,8.3-2.9c3.3,0,5.8,0.9,7.4,2.6
		s2.5,4.6,2.5,8.5v1.9h-16.9c0.1,2.6,0.8,4.6,1.9,5.9s2.8,1.9,5.1,1.9c1.8,0,3.3-0.4,4.5-1.3c1.1-0.8,1.7-2.1,1.7-3.9h3.8
		c0,2.7-0.9,4.7-2.8,6.2s-4.2,2.2-7.1,2.2C470.9,199.3,468.2,198.4,466.4,196.4z M480.5,185.2c0-4.5-2-6.7-5.9-6.7
		c-2.2,0-3.8,0.5-4.9,1.6c-1.1,1-1.8,2.8-2,5.1H480.5z"/>
	<path class="st3" d="M489.2,175.9h2.9l0.4,3.1h0.3c1.6-2.4,3.9-3.6,6.9-3.6c3,0,4.9,1.2,5.9,3.6h0.3c0.8-1.2,1.8-2.1,3.1-2.7
		c1.3-0.6,2.6-0.9,4-0.9c4.5,0,6.8,2.3,6.8,6.9v16.5H516V183c0-1.7-0.4-2.8-1.1-3.5s-1.7-1-3-1c-1.5,0-2.8,0.6-3.9,1.8
		c-1,1.2-1.6,2.9-1.6,4.9v13.6h-3.8V183c0-1.7-0.3-2.8-1-3.5s-1.7-1-3-1c-1,0-1.9,0.3-2.8,0.8c-0.8,0.5-1.5,1.3-2,2.3
		c-0.5,1-0.8,2.2-0.8,3.6v13.6h-3.8V175.9z"/>
	<path class="st3" d="M527.3,197.9c-0.7-0.9-1.1-2.1-1.1-3.4V179h-2.8v-3.2h2.8l0.8-6.4h3v6.4h3.9v3.2H530v15.1
		c0,1.4,0.6,2.1,1.9,2.1h2v2.5c-0.4,0.2-0.9,0.3-1.5,0.4c-0.6,0.1-1.2,0.2-1.7,0.2C529.1,199.3,528,198.8,527.3,197.9z"/>
</g>
</svg>
