<svg id="Lag_1" data-name="Lag 1" xmlns="http://www.w3.org/2000/svg" viewBox="0 0 630.32 195.38"><defs><style>.cls-1,.cls-2,.cls-4{fill:#007acc;}.cls-1,.cls-2{stroke:#007acc;stroke-miterlimit:10;}.cls-1{stroke-width:10px;}.cls-2{stroke-width:4px;}.cls-3{fill:none;}</style></defs><title>PCfejl logo blå</title><path class="cls-1" d="M249.61,133.37q-16.14-17-16.14-51.2T249.61,31q16.14-17,48-17,25.74,0,41.21,12.77t15.47,37.18H335.69q0-16.9-10.09-25.65t-28-8.74q-23.25,0-34.2,12.3t-11.15,40v.39q0,27.85,10.95,40.25t34.4,12.39q18.24,0,28.53-8.64t10.28-25.37h17.87q0,24.6-15.37,37.09t-41.31,12.48Q265.75,150.37,249.61,133.37Z"/><path class="cls-2" d="M392.51,60.27H376.37V45h16.14V27.36q0-10.89,5.45-18.13T416.4,2a51.25,51.25,0,0,1,8.49.73,43.28,43.28,0,0,1,7.23,1.79V17.3h-10.9Q411,17.3,411,27.36V45h21.17v15.3H411v95H392.51Z"/><path class="cls-2" d="M527.2,147.84c-8.88,6.91-19.69,9.9-33.66,9.9q-26.62,0-39.62-14t-13-43.6q0-29.55,13-43.6t39.62-14q23.9,0,35.74,12.68t11.84,40.77v9.22H460q1,19.08,9.12,28.19t24.42,9.12c8.81,0,17.94-3.35,23.39-7.41m4.91-45.2q0-32.07-28.3-32.07-15.72,0-23.58,7.54t-9.54,24.53Z"/><path class="cls-2" d="M544.27,190.86v-12h9.22q9.85,0,9.85-10.06V45h18.45V168q0,10.89-5.35,18.13t-17.71,7.23A43.08,43.08,0,0,1,544.27,190.86ZM563.34,3.68h18.45V24.22H563.34Z"/><path class="cls-2" d="M609.87,3.68h18.45V155.23H609.87Z"/><path class="cls-3" d="M171.19,38.74H128.71V85.39h42.48q10.16,0,16.15-6.35t6-17.25q0-11.07-5.62-17.06T171.19,38.74Z"/><path class="cls-1" d="M206,27.21q-10.58-11-30.36-10.95H111.47V147.12l18.25-18.25V97.54h45.92q18.83,0,29.88-11.24t11-29.88Q216.57,38.17,206,27.21ZM191.78,74.86q-6.34,6.74-17.1,6.73h-45V32.21h45q11.53,0,17.48,6.34t6,18.06Q198.12,68.15,191.78,74.86Z"/><polygon class="cls-4" points="0 122.64 96.85 11.53 96.98 158.93 67.23 128.62 46.57 183.85 21.67 174.53 42.33 119.3 0 122.64"/></svg>