<?xml version="1.0" encoding="utf-8"?>
<!-- Generator: Adobe Illustrator 23.0.1, SVG Export Plug-In . SVG Version: 6.00 Build 0)  -->
<svg version="1.1" id="Lag_1" xmlns="http://www.w3.org/2000/svg" xmlns:xlink="http://www.w3.org/1999/xlink" x="0px" y="0px"
	 viewBox="0 0 630.3 195.4" style="enable-background:new 0 0 630.3 195.4;" xml:space="preserve">
<style type="text/css">
	.st0{fill:#FFFFFF;stroke:#FFFFFF;stroke-width:10;stroke-miterlimit:10;}
	.st1{fill:#FFFFFF;stroke:#FFFFFF;stroke-width:4;stroke-miterlimit:10;}
	.st2{fill:none;}
	.st3{fill:#FFFFFF;}
</style>
<path class="st0" d="M249.6,133.4c-10.8-11.3-16.1-28.4-16.1-51.2c0-22.8,5.4-39.9,16.1-51.2c10.8-11.3,26.8-17,48-17
	c17.2,0,30.9,4.3,41.2,12.8c10.3,8.5,15.5,20.9,15.5,37.2h-18.6c0-11.3-3.4-19.8-10.1-25.7c-6.7-5.8-16-8.7-28-8.7
	c-15.5,0-26.9,4.1-34.2,12.3c-7.3,8.2-11,21.5-11.1,40v0.4c0,18.6,3.7,32,11,40.3c7.3,8.3,18.8,12.4,34.4,12.4
	c12.2,0,21.7-2.9,28.5-8.6c6.9-5.8,10.3-14.2,10.3-25.4h17.9c0,16.4-5.1,28.8-15.4,37.1c-10.2,8.3-24,12.5-41.3,12.5
	C276.4,150.4,260.4,144.7,249.6,133.4z"/>
<path class="st1" d="M392.5,60.3h-16.1V45h16.1V27.4c0-7.3,1.8-13.3,5.4-18.1c3.6-4.8,9.8-7.2,18.4-7.2c2.8,0,5.6,0.2,8.5,0.7
	c2.9,0.5,5.3,1.1,7.2,1.8v12.8h-10.9c-6.8,0-10.3,3.4-10.3,10.1V45h21.2v15.3H411v95h-18.4V60.3z"/>
<path class="st1" d="M527.2,147.8c-8.9,6.9-19.7,9.9-33.7,9.9c-17.7,0-31-4.7-39.6-14c-8.7-9.4-13-23.9-13-43.6
	c0-19.7,4.3-34.2,13-43.6c8.7-9.4,21.9-14,39.6-14c15.9,0,27.8,4.2,35.7,12.7c7.9,8.5,11.8,22,11.8,40.8v9.2H460
	c0.7,12.7,3.7,22.1,9.1,28.2c5.4,6.1,13.5,9.1,24.4,9.1c8.8,0,17.9-3.4,23.4-7.4 M521.8,89.8c0-21.4-9.4-32.1-28.3-32.1
	c-10.5,0-18.3,2.5-23.6,7.5c-5.2,5-8.4,13.2-9.5,24.5H521.8z"/>
<path class="st1" d="M544.3,190.9v-11.9h9.2c6.6,0,9.9-3.4,9.9-10.1V45h18.4v123c0,7.3-1.8,13.3-5.3,18.1c-3.6,4.8-9.5,7.2-17.7,7.2
	C553.8,193.4,549,192.5,544.3,190.9z M563.3,3.7h18.4v20.5h-18.4V3.7z"/>
<path class="st1" d="M609.9,3.7h18.4v151.6h-18.4V3.7z"/>
<path class="st2" d="M171.2,38.7h-42.5v46.7h42.5c6.8,0,12.2-2.1,16.2-6.4c4-4.2,6-10,6-17.2c0-7.4-1.9-13.1-5.6-17.1
	C184,40.7,178.4,38.7,171.2,38.7z"/>
<path class="st0" d="M206,27.2c-7-7.3-17.2-11-30.4-11h-64.2v130.9l18.3-18.3V97.5h45.9c12.6,0,22.5-3.7,29.9-11.2
	c7.4-7.5,11-17.5,11-29.9C216.6,44.3,213,34.5,206,27.2z M191.8,74.9c-4.2,4.5-9.9,6.7-17.1,6.7h-45V32.2h45
	c7.7,0,13.5,2.1,17.5,6.3c4,4.2,6,10.2,6,18.1C198.1,64.3,196,70.4,191.8,74.9z"/>
<polygon id="XMLID_8_" class="st3" points="0,122.6 96.9,11.5 97,158.9 67.2,128.6 46.6,183.8 21.7,174.5 42.3,119.3 "/>
</svg>
