<svg xmlns="http://www.w3.org/2000/svg" xmlns:xlink="http://www.w3.org/1999/xlink" data-name="Layer 1" width="785.9861450195312" height="498.3822937011719"><rect id="backgroundrect" width="100%" height="100%" x="0" y="0" fill="none" stroke="none"/><defs><linearGradient id="b3f40125-0363-42ff-a31c-61eb5d655202" x1="0.5" y1="1" x2="0.5" y2="0.00004315769183449447"><stop offset="0" stop-color="gray" stop-opacity="0.25"/><stop offset="0.54" stop-color="gray" stop-opacity="0.12"/><stop offset="1" stop-color="gray" stop-opacity="0.1"/></linearGradient><linearGradient id="27ca4b3e-9552-41ad-8ba5-de2574048d20" x1="385.0799865722656" y1="490.2099914550781" x2="385.0799865722656" y2="258.44000244140625" xlink:href="#b3f40125-0363-42ff-a31c-61eb5d655202"/><linearGradient id="98d2c4cc-353c-49f3-ae94-49dceb95b558" x1="384.9700012207031" y1="232.2899932861328" x2="384.9700012207031" y2="0.5099999904632568" xlink:href="#b3f40125-0363-42ff-a31c-61eb5d655202"/><linearGradient id="1b187342-85ad-4174-acd7-e912b9a9009d" x1="661.22998046875" y1="231.77000427246094" x2="661.22998046875" y2="0" xlink:href="#b3f40125-0363-42ff-a31c-61eb5d655202"/><linearGradient id="5629c76b-b43c-4c6e-ad7d-c063ce4611c3" x1="115.88999938964844" y1="482.6199951171875" x2="115.88999938964844" y2="250.85000610351562" xlink:href="#b3f40125-0363-42ff-a31c-61eb5d655202"/><linearGradient id="94554b54-cbd9-41c5-8f29-6b4786d89c61" x1="665.5499877929688" y1="495.4700012207031" x2="665.5499877929688" y2="263.70001220703125" xlink:href="#b3f40125-0363-42ff-a31c-61eb5d655202"/><linearGradient id="897c833c-fa4a-4dad-90f9-1cb0d950ec3f" x1="116.72000122070312" y1="743.1500244140625" x2="116.72000122070312" y2="511.3800048828125" xlink:href="#b3f40125-0363-42ff-a31c-61eb5d655202"/><linearGradient id="b88de7bb-a3e6-477b-a3c4-5c16e389ed83" x1="392.0299987792969" y1="756.4400024414062" x2="392.0299987792969" y2="524.6699829101562" xlink:href="#b3f40125-0363-42ff-a31c-61eb5d655202"/></defs><title>team</title><g class="currentLayer" style=""><title>Layer 1</title><g opacity="0.5" id="svg_1"><circle cx="116.72000122070312" cy="122.08999633789062" r="115.88999938964844" fill="url(#b3f40125-0363-42ff-a31c-61eb5d655202)" id="svg_2"/></g><circle cx="116.72000122070312" cy="121.45999908447266" r="113.44000244140625" fill="#f5f5f5" id="svg_3"/><path d="M117.04000122070312,235.22000122070312 a112.91,112.91 0 0 0 62.36,-18.66 c-4.18,-22.84 -20.09,-24.15 -20.09,-24.15 H71.60000122070312 s-15,1.23 -19.7,22.25 A112.92,112.92 0 0 0 117.04000122070312,235.22000122070312 z" fill="#007acc" id="svg_4"/><circle cx="115.8499984741211" cy="118.95999908447266" r="50.290000915527344" fill="#333" id="svg_5"/><path d="M98.18,164.57h35.09a0,0,0,0,1,0,0v28.07a17.54,17.54,0,0,1-17.54,17.54h0a17.54,17.54,0,0,1-17.54-17.54V164.57A0,0,0,0,1,98.18,164.57Z" opacity="0.1" id="svg_6"/><path d="M101.53,163.27h28.39a3.35,3.35,0,0,1,3.35,3.35v24.72a17.54,17.54,0,0,1-17.54,17.54h0a17.54,17.54,0,0,1-17.54-17.54V166.62A3.35,3.35,0,0,1,101.53,163.27Z" fill="#be7c5e" id="svg_7"/><path d="M98.2500012207031,177.82000122070312 a50.5,50.5 0 0 0 35.09,0.1 v-4.3100000000000005 H98.2500012207031 z" opacity="0.1" id="svg_8"/><circle cx="115.8499984741211" cy="129.8800048828125" r="50.290000915527344" fill="#be7c5e" id="svg_9"/><path d="M85.38000122070315,109.14000122070311 c0.5900000000000001,-2.17 1.33,-4.5600000000000005 3.2800000000000002,-5.69 c1.54,-0.9 3.45,-0.7600000000000001 5.23,-0.6700000000000002 c13.9,0.7600000000000001 27.68,-2.41 41.2,-5.72 c7.73,-1.8900000000000001 16,-4.19 21,-10.42 s-1.52,-25.81 -9.13,-28.12 c-5,-1.53 -10.8,1.32 -15.54,-0.92 c-2.11,-1 -3.66,-2.87 -5.48,-4.33 c-3.73,-3 -8.52,-4.21 -13.16,-5.35 c-5.42,-1.34 -11.28,-2.6500000000000004 -16.43,-0.5 c-4,1.6600000000000001 -6.92,5.17 -10.71,7.25 c-7.21,4 -16,2.14 -24.26,2.12 c-2.79,0 -6.12,0.56 -7.23,3.12 c-0.7500000000000001,1.7400000000000002 -0.15000000000000002,3.72 -0.07,5.61 c0.24000000000000002,6 -4.71,10.67 -8.86,15 s-8.07,10.51 -5.45,15.89 c1,2.05 2.83,3.6 3.87,5.63 c1.79,3.52 0.8900000000000001,7.77 1.54,11.66 a29.34,29.34 0 0 0 3.27,8.4 c3.08,6 18.55,38.3 25.66,30.09 c3.44,-4 4,-15.56 5.39,-20.76 Q82.38000122070315,120.22000122070312 85.38000122070315,109.14000122070311 z" fill="#333" id="svg_10" class=""/><ellipse cx="80.06999969482422" cy="128.0500030517578" rx="4.679999828338623" ry="8.770000457763672" fill="#be7c5e" id="svg_11"/><g opacity="0.5" id="svg_12" class=""><circle cx="385.0799865722656" cy="374.32000732421875" r="115.88999938964844" fill="url(#27ca4b3e-9552-41ad-8ba5-de2574048d20)" id="svg_13"/></g><circle cx="385.29998779296875" cy="373.5799865722656" r="113.44000244140625" fill="#f5f5f5" id="svg_14" class=""/><path d="M385.4000012207031,487.4700012207031 A112.91,112.91 0 0 0 447.7200012207031,468.81000122070316 c-4.18,-22.84 -20.09,-24.15 -20.09,-24.15 H339.95000122070314 s-15,1.23 -19.7,22.25 A112.92,112.92 0 0 0 385.4000012207031,487.4700012207031 z" fill="#007acc" id="svg_15"/><circle cx="384.20001220703125" cy="371.19000244140625" r="54.7599983215332" fill="#f55f44" id="svg_16"/><path d="M366.53,416.8h35.09a0,0,0,0,1,0,0v28.07a17.54,17.54,0,0,1-17.54,17.54h0a17.54,17.54,0,0,1-17.54-17.54V416.8A0,0,0,0,1,366.53,416.8Z" opacity="0.1" id="svg_17"/><path d="M369.88,415.5h28.39a3.35,3.35,0,0,1,3.35,3.35v24.72a17.54,17.54,0,0,1-17.54,17.54h0a17.54,17.54,0,0,1-17.54-17.54V418.85a3.35,3.35,0,0,1,3.35-3.35Z" fill="#fda57d" id="svg_18"/><path d="M366.6000012207031,430.0500012207031 a50.5,50.5 0 0 0 35.09,0.1 v-4.3100000000000005 H366.6000012207031 z" opacity="0.1" id="svg_19"/><circle cx="384.20001220703125" cy="382.1099853515625" r="50.290000915527344" fill="#fda57d" id="svg_20"/><circle cx="384.1300048828125" cy="315.489990234375" r="20.239999771118164" fill="#f55f44" id="svg_21"/><circle cx="384.1300048828125" cy="295.55999755859375" r="13.289999961853027" fill="#f55f44" id="svg_22"/><path d="M375.3500012207031,326.59000122070313 a20.24,20.24 0 0 1 -10.55,-25.88 c-0.14,0.28 -0.28,0.5700000000000001 -0.41000000000000003,0.8600000000000001 a20.24,20.24 0 1 0 36.94,16.57 c0.13,-0.29000000000000004 0.25,-0.5800000000000001 0.37000000000000005,-0.8800000000000001 A20.24,20.24 0 0 1 375.3500012207031,326.59000122070313 z" fill="#f55f44" id="svg_23"/><path d="M348.3900012207031,336.3700012207031 s21.19,43 81,18 l-13.92,-21.83 l-24.67,-8.86 z" opacity="0.1" id="svg_24"/><path d="M348.3900012207031,335.7300012207031 s21.19,43 81,18 l-13.92,-21.83 l-24.67,-8.86 z" fill="#f55f44" id="svg_25"/><path d="M364.7200012207031,320.07000122070315 a249.85,249.85 0 0 1 39.18,0 S374.96000122070313,322.76000122070315 364.7200012207031,320.07000122070315 z" fill="#333" id="svg_26"/><path d="M387.17000122070317,281.46000122070313 a13.32,13.32 0 0 0 -3,0.23 h0.77 a13.28,13.28 0 0 1 2,26.33 a13.28,13.28 0 0 0 0.24000000000000002,-26.56 z" fill="#f55f44" id="svg_27"/><ellipse cx="333.8999938964844" cy="382.05999755859375" rx="4.679999828338623" ry="8.770000457763672" fill="#fda57d" id="svg_28"/><ellipse cx="434.489990234375" cy="382.05999755859375" rx="4.679999828338623" ry="8.770000457763672" fill="#fda57d" id="svg_29"/><polygon points="345.22 337 355.03 331.94 357.24 340.05 351.23 344.14 345.22 337" fill="#f55f44" id="svg_30"/><g opacity="0.5" id="svg_31" class=""><circle cx="384.9700012207031" cy="116.4000015258789" r="115.88999938964844" fill="url(#98d2c4cc-353c-49f3-ae94-49dceb95b558)" id="svg_32"/></g><circle cx="384.9700012207031" cy="115.7699966430664" r="113.44000244140625" fill="#f5f5f5" id="svg_33" class=""/><path d="M340.7200012207031,116.78000122070313 s-12.86,63.36 -19.88,59.85 c0,0 67.7,58.48 127.48,0 c0,0 -10.53,-44.65 -25.73,-59.85 z" fill="#333" id="svg_34"/><path d="M385.2900012207032,229.5500012207031 a112.91,112.91 0 0 0 62.36,-18.66 c-4.18,-22.84 -20.09,-24.15 -20.09,-24.15 H339.84000122070313 s-15,1.23 -19.7,22.25 A112.92,112.92 0 0 0 385.2900012207032,229.5500012207031 z" fill="#007acc" id="svg_35"/><circle cx="384.0899963378906" cy="113.2699966430664" r="50.290000915527344" fill="#333" id="svg_36"/><path d="M366.42,158.88h35.09a0,0,0,0,1,0,0v28.07A17.54,17.54,0,0,1,384,204.49h0a17.54,17.54,0,0,1-17.54-17.54V158.88A0,0,0,0,1,366.42,158.88Z" opacity="0.1" id="svg_37"/><path d="M369.77,157.58h28.39a3.35,3.35,0,0,1,3.35,3.35v24.72A17.54,17.54,0,0,1,384,203.19h0a17.54,17.54,0,0,1-17.54-17.54V160.92A3.35,3.35,0,0,1,369.77,157.58Z" fill="#be7c5e" id="svg_38"/><path d="M366.4900012207031,172.13000122070312 a50.5,50.5 0 0 0 35.09,0.1 v-4.3100000000000005 H366.4900012207031 z" opacity="0.1" id="svg_39"/><circle cx="384.0899963378906" cy="124.18000030517578" r="50.290000915527344" fill="#be7c5e" id="svg_40"/><path d="M336.0200012207031,105.08000122070314 h95.9 s-8.19,-38.72 -44.44,-36.25 S336.0200012207031,105.08000122070314 336.0200012207031,105.08000122070314 z" fill="#333" id="svg_41"/><ellipse cx="334.8399963378906" cy="122.04000091552734" rx="4.679999828338623" ry="8.770000457763672" fill="#be7c5e" id="svg_42"/><ellipse cx="433.0799865722656" cy="122.04000091552734" rx="4.679999828338623" ry="8.770000457763672" fill="#be7c5e" id="svg_43"/><path d="M336.0200012207031,106.38000122070312 h95.9 s-8.19,-38.72 -44.44,-36.25 S336.0200012207031,106.38000122070312 336.0200012207031,106.38000122070312 z" opacity="0.1" id="svg_44"/><g opacity="0.5" id="svg_45"><circle cx="661.22998046875" cy="115.88999938964844" r="115.88999938964844" fill="url(#1b187342-85ad-4174-acd7-e912b9a9009d)" id="svg_46"/></g><circle cx="661.4500122070312" cy="115.13999938964844" r="113.44000244140625" fill="#f5f5f5" id="svg_47"/><path d="M661.5500012207032,229.04000122070312 a112.91,112.91 0 0 0 62.36,-18.66 C719.7200012207031,187.53000122070313 703.8200012207031,186.22000122070312 703.8200012207031,186.22000122070312 H616.1100012207031 s-15,1.23 -19.7,22.25 A112.92,112.92 0 0 0 661.5500012207032,229.04000122070312 z" fill="#007acc" id="svg_48"/><circle cx="660.3599853515625" cy="112.75" r="54.7599983215332" fill="#72351c" id="svg_49"/><path d="M642.68,158.36h35.09a0,0,0,0,1,0,0v28.07A17.54,17.54,0,0,1,660.23,204h0a17.54,17.54,0,0,1-17.54-17.54V158.36A0,0,0,0,1,642.68,158.36Z" opacity="0.1" id="svg_50"/><path d="M646,157.06h28.39a3.35,3.35,0,0,1,3.35,3.35v24.72a17.54,17.54,0,0,1-17.54,17.54h0a17.54,17.54,0,0,1-17.54-17.54V160.41a3.35,3.35,0,0,1,3.35-3.35Z" fill="#fda57d" id="svg_51"/><path d="M642.7200012207031,171.6100012207031 a50.5,50.5 0 0 0 35.09,0.1 v-4.3100000000000005 H642.7200012207031 z" opacity="0.1" id="svg_52"/><circle cx="660.3599853515625" cy="123.66999816894531" r="50.290000915527344" fill="#fda57d" id="svg_53"/><path d="M624.5400012207032,77.93000122070313 s21.19,43 81,18 l-13.92,-21.83 l-24.67,-8.86 z" opacity="0.1" id="svg_54"/><path d="M624.5400012207032,77.30000122070314 s21.19,43 81,18 l-13.92,-21.83 l-24.67,-8.86 z" fill="#72351c" id="svg_55"/><path d="M624.3500012207031,74.39000122070311 a29.05,29.05 0 0 1 7.2,-11.71 c9.89,-9.78 26.11,-11.84 34.43,-23 a6.51,6.51 0 0 1 -3,9.18 c8,-0.05000000000000001 17.21,-0.7500000000000001 21.71,-7.3100000000000005 a14.91,14.91 0 0 1 -2.51,15.74 c7.06,0.32000000000000006 14.6,5.11 15.06,12.17 c0.30000000000000004,4.7 -2.64,9.15 -6.51,11.85 S682.2000012207031,85.22000122070312 677.6000012207031,86.22000122070312 C664.1800012207032,89.22000122070312 615.5900012207031,101.63000122070312 624.3500012207031,74.39000122070311 z" fill="#72351c" id="svg_56"/><path d="M710.6500012207031,129.92717565536498 h-1.33 L683.3800012207031,153.037175655365 c-25,-11.7 -43.34,0 -43.34,0 l-27.2,-22.14 l-2.74,0.3400000000000002 a50.29,50.29 0 0 0 100.56,-1.29 zm-50.36,31.95 c-9.78,0 -17.71,-2 -17.71,-4.43 s7.93,-4.43 17.71,-4.43 s17.71,2 17.71,4.43 S670.0700012207031,161.877175655365 660.2800012207031,161.877175655365 z" fill="#72351c" id="svg_57" class=""/><ellipse cx="610.0499877929688" cy="123.62000274658203" rx="4.679999828338623" ry="8.770000457763672" fill="#fda57d" id="svg_58"/><ellipse cx="710.6400146484375" cy="123.62000274658203" rx="4.679999828338623" ry="8.770000457763672" fill="#fda57d" id="svg_59"/><g opacity="0.5" id="svg_60"><circle cx="115.88999938964844" cy="366.7300109863281" r="115.88999938964844" fill="url(#5629c76b-b43c-4c6e-ad7d-c063ce4611c3)" id="svg_61"/></g><circle cx="116.11000061035156" cy="365.989990234375" r="113.44000244140625" fill="#f5f5f5" id="svg_62"/><path d="M116.21000122070313,479.8800012207031 A112.91,112.91 0 0 0 178.5600012207031,461.2200012207031 c-4.18,-22.84 -20.09,-24.15 -20.09,-24.15 H70.72000122070312 s-15,1.23 -19.7,22.25 A112.92,112.92 0 0 0 116.21000122070313,479.8800012207031 z" fill="#007acc" id="svg_63"/><circle cx="115.01000213623047" cy="363.6000061035156" r="54.7599983215332" fill="#333" id="svg_64"/><path d="M97.34,409.21h35.09a0,0,0,0,1,0,0v28.07a17.54,17.54,0,0,1-17.54,17.54h0a17.54,17.54,0,0,1-17.54-17.54V409.21A0,0,0,0,1,97.34,409.21Z" opacity="0.1" id="svg_65"/><path d="M100.69,407.91h28.39a3.35,3.35,0,0,1,3.35,3.35V436a17.54,17.54,0,0,1-17.54,17.54h0A17.54,17.54,0,0,1,97.34,436V411.25a3.35,3.35,0,0,1,3.35-3.35Z" fill="#fdb797" id="svg_66"/><path d="M97.41000122070312,422.46000122070313 a50.5,50.5 0 0 0 35.09,0.1 V418.2200012207031 H97.41000122070312 z" opacity="0.1" id="svg_67"/><circle cx="115.01000213623047" cy="374.5199890136719" r="50.290000915527344" fill="#fdb797" id="svg_68"/><path d="M79.20000122070314,328.77000122070314 s21.19,43 81,18 l-13.92,-21.83 l-24.67,-8.86 z" opacity="0.1" id="svg_69"/><path d="M79.20000122070314,328.14000122070314 s21.19,43 81,18 l-13.92,-21.83 l-24.67,-8.86 z" fill="#333" id="svg_70"/><path d="M79.01000122070315,325.2200012207031 a29.05,29.05 0 0 1 7.2,-11.71 c9.89,-9.78 26.11,-11.84 34.43,-23 a6.51,6.51 0 0 1 -3,9.18 c8,-0.05000000000000001 17.21,-0.7500000000000001 21.71,-7.3100000000000005 a14.91,14.91 0 0 1 -2.51,15.74 c7.06,0.32000000000000006 14.6,5.11 15.06,12.17 c0.30000000000000004,4.7 -2.64,9.15 -6.51,11.85 s-8.54,3.93 -13.14,4.95 C118.83000122070314,340.07000122070315 70.2500012207031,352.4800012207031 79.01000122070315,325.2200012207031 z" fill="#333" id="svg_71"/><ellipse cx="64.69999694824219" cy="374.4700012207031" rx="4.679999828338623" ry="8.770000457763672" fill="#fdb797" id="svg_72"/><ellipse cx="165.2899932861328" cy="374.4700012207031" rx="4.679999828338623" ry="8.770000457763672" fill="#fdb797" id="svg_73"/><g opacity="0.5" id="svg_74" class=""><circle cx="665.5499877929688" cy="379.5799865722656" r="115.88999938964844" fill="url(#94554b54-cbd9-41c5-8f29-6b4786d89c61)" id="svg_75"/></g><circle cx="665.5499877929688" cy="378.95001220703125" r="113.44000244140625" fill="#f5f5f5" id="svg_76" class=""/><path d="M665.8700012207031,492.7300012207031 a112.91,112.91 0 0 0 62.36,-18.66 c-4.18,-22.84 -20.09,-24.15 -20.09,-24.15 H620.4200012207032 s-15,1.23 -19.7,22.25 A112.92,112.92 0 0 0 665.8700012207031,492.7300012207031 z" fill="#007acc" id="svg_77"/><path d="M647,422.06h35.09a0,0,0,0,1,0,0v28.07a17.54,17.54,0,0,1-17.54,17.54h0A17.54,17.54,0,0,1,647,450.13V422.06A0,0,0,0,1,647,422.06Z" opacity="0.1" id="svg_78"/><path d="M650.35,420.76h28.39a3.35,3.35,0,0,1,3.35,3.35v24.72a17.54,17.54,0,0,1-17.54,17.54h0A17.54,17.54,0,0,1,647,448.83V424.11a3.35,3.35,0,0,1,3.35-3.35Z" fill="#fdb797" id="svg_79"/><path d="M647.0700012207031,435.3100012207031 a50.5,50.5 0 0 0 35.09,0.1 v-4.3100000000000005 H647.0700012207031 z" opacity="0.1" id="svg_80"/><circle cx="664.6699829101562" cy="387.3699951171875" r="50.290000915527344" fill="#fdb797" id="svg_81" class=""/><ellipse cx="615.4199829101562" cy="385.2200012207031" rx="4.679999828338623" ry="8.770000457763672" fill="#fdb797" id="svg_82"/><ellipse cx="713.6599731445312" cy="385.2200012207031" rx="4.679999828338623" ry="8.770000457763672" fill="#fdb797" id="svg_83"/><path d="M715.3591434288024,393.0850559616089 h-1.33 L688.0891434288025,416.1950559616089 c-25,-11.7 -43.34,0 -43.34,0 l-27.2,-22.14 l-2.74,0.3400000000000004 a50.29,50.29 0 0 0 100.56,-1.29 zm-50.36,31.95 c-9.78,0 -17.71,-2 -17.71,-4.43 s7.93,-4.43 17.71,-4.43 s17.71,2 17.71,4.43 S674.7791434288025,425.0350559616089 664.9891434288024,425.0350559616089 z" fill="#000000" class="" id="svg_84" fill-opacity="1"/></g></svg>