<svg xmlns="http://www.w3.org/2000/svg" data-name="Lag 1" width="386.38505999232075" height="244.88089519634786" style=""><defs><style>.cls-1{fill:none;}.cls-2{fill:#007acc;}.cls-3{fill:#fff;}</style></defs><title>vectorpaint (15)</title><rect id="backgroundrect" class="cls-1" width="885.3599853515625" height="482.79998779296875" style=""/><g class="currentLayer" style=""><title>Layer 1</title><g id="svg_18" data-name="svg 18" class=""><rect class="cls-2" x="5.942535400390625" y="117.50617218017578" width="374.2900085449219" height="121.94000244140625" rx="7" id="svg_1"/></g><g id="svg_29" data-name="svg 29" class=""><rect class="cls-2" x="5.942535400390625" y="6.706184387207031" width="374.2900085449219" height="121.94000244140625" rx="7" id="svg_2"/></g><g id="svg_30" data-name="svg 30" class=""><rect class="cls-3" x="78.02252197265625" y="22.07617950439453" width="21.209999084472656" height="21.209999084472656" rx="7" id="svg_3"/></g><g id="svg_31" data-name="svg 31" class=""><path class="cls-3" d="M136.3425354003906,32.686179504394545 c0,-0.5900000000000001 3.15,-1.06 7,-1.06 h156.7 c3.85,0 7,0.47000000000000003 7,1.06 s-3.15,1.06 -7,1.06 H143.3425354003906 C139.49253540039064,33.74617950439452 136.3425354003906,33.26617950439453 136.3425354003906,32.686179504394545 z" id="svg_4"/></g><g id="svg_32" data-name="svg 32" class=""><rect class="cls-3" x="78.02252197265625" y="57.066184997558594" width="21.209999084472656" height="21.209999084472656" rx="7" id="svg_5"/></g><g id="svg_33" data-name="svg 33" class=""><path class="cls-3" d="M136.3425354003906,67.67617950439453 c0,-0.5900000000000001 3.15,-1.06 7,-1.06 h156.7 c3.85,0 7,0.47000000000000003 7,1.06 s-3.15,1.06 -7,1.06 H143.3425354003906 C139.49253540039064,68.73617950439453 136.3425354003906,68.25617950439454 136.3425354003906,67.67617950439453 z" id="svg_6"/></g><g id="svg_34" data-name="svg 34" class=""><rect class="cls-3" x="78.02252197265625" y="92.0561752319336" width="21.209999084472656" height="21.209999084472656" rx="7" id="svg_7"/></g><g id="svg_35" data-name="svg 35" class=""><path class="cls-3" d="M136.3425354003906,102.66617950439453 c0,-0.5900000000000001 3.15,-1.06 7,-1.06 h156.7 c3.85,0 7,0.47000000000000003 7,1.06 s-3.15,1.06 -7,1.06 H143.3425354003906 C139.49253540039064,103.72617950439454 136.3425354003906,103.24617950439452 136.3425354003906,102.66617950439453 z" id="svg_9"/></g><g id="svg_23" data-name="svg 23" class=""><rect class="cls-3" x="78.57254028320312" y="132.88617706298828" width="21.209999084472656" height="21.209999084472656" rx="7" id="svg_10"/></g><g id="svg_24" data-name="svg 24" class=""><path class="cls-3" d="M136.8925354003906,143.48617950439456 c0,-0.5800000000000001 3.15,-1.06 7,-1.06 H300.6025354003906 c3.85,0 7,0.48000000000000004 7,1.06 s-3.15,1.06 -7,1.06 H143.8925354003906 C140.04253540039065,144.57617950439453 136.8925354003906,144.06617950439454 136.8925354003906,143.48617950439456 z" id="svg_11"/></g><g id="svg_25" data-name="svg 25" class=""><rect class="cls-3" x="78.57254028320312" y="167.87616729736328" width="21.209999084472656" height="21.209999084472656" rx="7" id="svg_12"/></g><g id="svg_26" data-name="svg 26" class=""><path class="cls-3" d="M136.8925354003906,178.4761795043945 c0,-0.5800000000000001 3.15,-1.06 7,-1.06 H300.6025354003906 c3.85,0 7,0.48000000000000004 7,1.06 s-3.15,1.06 -7,1.06 H143.8925354003906 C140.04253540039065,179.57617950439453 136.8925354003906,179.05617950439455 136.8925354003906,178.4761795043945 z" id="svg_13"/></g><g id="svg_27" data-name="svg 27" class=""><rect class="cls-3" x="78.57254028320312" y="202.8661880493164" width="21.209999084472656" height="21.209999084472656" rx="7" id="svg_14"/></g><g id="svg_28" data-name="svg 28" class=""><path class="cls-3" d="M136.8925354003906,213.46617950439452 c0,-0.5800000000000001 3.15,-1.06 7,-1.06 H300.6025354003906 c3.85,0 7,0.48000000000000004 7,1.06 s-3.15,1.06 -7,1.06 H143.8925354003906 C140.04253540039065,214.57617950439453 136.8925354003906,214.04617950439456 136.8925354003906,213.46617950439452 z" id="svg_15"/></g><polygon id="svg_8" data-name="svg 8" class="cls-2" points="84.51254272460938,40.246177673339844 79.41253662109375,33.69617462158203 82.38253784179688,31.38617706298828 84.79254150390625,34.496177673339844 92.94253540039062,25.88617706298828 95.66253662109375,28.476173400878906 84.51254272460938,40.246177673339844 "/><polygon id="svg_8-2" data-name="svg 8" class="cls-2" points="84.55252075195312,74.74617767333984 79.53253173828125,68.28618621826172 82.45254516601562,66.01618194580078 84.83255004882812,69.07617950439453 92.862548828125,60.59618377685547 95.55252075195312,63.14618682861328 84.55252075195312,74.74617767333984 "/><polygon id="svg_8-3" data-name="svg 8" class="cls-2" points="84.55252075195312,109.7361831665039 79.53253173828125,103.27617645263672 82.45254516601562,101.00617218017578 84.83255004882812,104.0661849975586 92.862548828125,95.58617401123047 95.55252075195312,98.13617706298828 84.55252075195312,109.7361831665039 "/><polygon id="svg_8-4" data-name="svg 8" class="cls-2" points="85.64254760742188,151.6161880493164 80.62252807617188,145.16617584228516 83.53253173828125,142.89618682861328 85.91253662109375,145.94617462158203 93.94253540039062,137.4761734008789 96.63253784179688,140.01618194580078 85.64254760742188,151.6161880493164 "/><polygon id="svg_8-5" data-name="svg 8" class="cls-2" points="85.7125244140625,186.03617095947266 80.81253051757812,179.7461929321289 83.66253662109375,177.52619171142578 85.9825439453125,180.50617218017578 93.81253051757812,172.2361831665039 96.43252563476562,174.71619415283203 85.7125244140625,186.03617095947266 "/><polygon id="svg_8-6" data-name="svg 8" class="cls-2" points="86.19253540039062,222.08618927001953 81.17254638671875,215.63617706298828 84.092529296875,213.3661880493164 86.4725341796875,216.41617584228516 94.50253295898438,207.94617462158203 97.18252563476562,210.4861831665039 86.19253540039062,222.08618927001953 "/><rect class="cls-3" x="134.91253662109375" y="30.25617218017578" width="172.1300048828125" height="4.849999904632568" id="svg_16"/><rect class="cls-3" x="134.91253662109375" y="65.24617767333984" width="172.1300048828125" height="4.849999904632568" id="svg_17"/><rect class="cls-3" x="134.91253662109375" y="99.17618560791016" width="172.1300048828125" height="4.849999904632568" id="svg_19"/><rect class="cls-3" x="134.91253662109375" y="139.9961929321289" width="172.1300048828125" height="4.849999904632568" id="svg_20"/><rect class="cls-3" x="134.91253662109375" y="174.9861831665039" width="172.1300048828125" height="4.849999904632568" id="svg_21"/><rect class="cls-3" x="134.91253662109375" y="211.03617095947266" width="172.1300048828125" height="4.849999904632568" id="svg_22"/></g></svg>